<mxfile host="app.diagrams.net" modified="2024-03-05T19:21:24.240Z" agent="Mozilla/5.0 (Windows NT 10.0; Win64; x64) AppleWebKit/537.36 (KHTML, like Gecko) Chrome/122.0.0.0 Safari/537.36" etag="U-yjdZwhM6LEztDudhwG" version="24.0.1" type="device" pages="2">
  <diagram name="Page-1" id="XlvtgbyDahoSb3CSAquf">
    <mxGraphModel dx="1050" dy="522" grid="1" gridSize="10" guides="1" tooltips="1" connect="1" arrows="0" fold="1" page="1" pageScale="1" pageWidth="850" pageHeight="1100" math="0" shadow="0">
      <root>
        <mxCell id="0" />
        <mxCell id="1" parent="0" />
        <mxCell id="PKj-x0mrQdb3axZJa0hV-22" value="" style="endArrow=none;dashed=1;html=1;rounded=0;entryX=0;entryY=1;entryDx=0;entryDy=0;fontStyle=1;fontSize=16;shadow=1;strokeWidth=2;exitX=0.75;exitY=0;exitDx=0;exitDy=0;" parent="1" source="nRG68s6rUzyQYK_MIIgg-28" edge="1">
          <mxGeometry width="50" height="50" relative="1" as="geometry">
            <mxPoint x="1080" y="1080" as="sourcePoint" />
            <mxPoint x="1079.9999999999995" y="240" as="targetPoint" />
          </mxGeometry>
        </mxCell>
        <mxCell id="nRG68s6rUzyQYK_MIIgg-1" value="" style="rounded=0;whiteSpace=wrap;html=1;fontStyle=1;fontSize=14;shadow=1;strokeWidth=2;" parent="1" vertex="1">
          <mxGeometry x="40" y="260" width="120" height="80" as="geometry" />
        </mxCell>
        <mxCell id="nRG68s6rUzyQYK_MIIgg-2" value="&lt;span style=&quot;font-size: 14px;&quot;&gt;TOPIC&amp;nbsp;&lt;br style=&quot;border-color: var(--border-color); font-size: 14px;&quot;&gt;SELECTION&lt;br style=&quot;font-size: 14px;&quot;&gt;&lt;/span&gt;" style="text;html=1;strokeColor=none;fillColor=none;align=center;verticalAlign=middle;whiteSpace=wrap;rounded=0;fontStyle=1;fontSize=14;shadow=1;strokeWidth=2;" parent="1" vertex="1">
          <mxGeometry x="70" y="285" width="60" height="30" as="geometry" />
        </mxCell>
        <mxCell id="nRG68s6rUzyQYK_MIIgg-3" value="LITERATURE&amp;nbsp;&lt;br style=&quot;border-color: var(--border-color); font-size: 14px;&quot;&gt;SURVEY" style="rounded=0;whiteSpace=wrap;html=1;fontStyle=1;fontSize=14;shadow=1;strokeWidth=2;" parent="1" vertex="1">
          <mxGeometry x="40" y="360" width="120" height="70" as="geometry" />
        </mxCell>
        <mxCell id="nRG68s6rUzyQYK_MIIgg-5" value="&amp;nbsp;DATASET COLLECTION" style="rounded=0;whiteSpace=wrap;html=1;fontStyle=1;fontSize=14;shadow=1;strokeWidth=2;" parent="1" vertex="1">
          <mxGeometry x="40" y="450" width="120" height="70" as="geometry" />
        </mxCell>
        <mxCell id="nRG68s6rUzyQYK_MIIgg-11" value="" style="rounded=0;whiteSpace=wrap;html=1;fontStyle=1;fontSize=16;shadow=1;strokeWidth=2;" parent="1" vertex="1">
          <mxGeometry x="200" y="920" width="320" height="40" as="geometry" />
        </mxCell>
        <mxCell id="nRG68s6rUzyQYK_MIIgg-12" value="" style="rounded=0;whiteSpace=wrap;html=1;fontStyle=1;fontSize=16;shadow=1;strokeWidth=2;" parent="1" vertex="1">
          <mxGeometry x="200" y="180" width="80" height="60" as="geometry" />
        </mxCell>
        <mxCell id="nRG68s6rUzyQYK_MIIgg-15" value="FEBRUARY" style="text;html=1;strokeColor=none;fillColor=none;align=center;verticalAlign=middle;whiteSpace=wrap;rounded=0;fontStyle=1;fontSize=16;shadow=1;strokeWidth=2;" parent="1" vertex="1">
          <mxGeometry x="330" y="925" width="60" height="30" as="geometry" />
        </mxCell>
        <mxCell id="nRG68s6rUzyQYK_MIIgg-16" value="" style="rounded=0;whiteSpace=wrap;html=1;fontStyle=1;fontSize=16;shadow=1;strokeWidth=2;" parent="1" vertex="1">
          <mxGeometry x="280.0000000000002" y="180" width="80" height="60" as="geometry" />
        </mxCell>
        <mxCell id="nRG68s6rUzyQYK_MIIgg-17" value="" style="rounded=0;whiteSpace=wrap;html=1;fontStyle=1;fontSize=16;shadow=1;strokeWidth=2;" parent="1" vertex="1">
          <mxGeometry x="360.0000000000002" y="180" width="80" height="60" as="geometry" />
        </mxCell>
        <mxCell id="nRG68s6rUzyQYK_MIIgg-18" value="" style="rounded=0;whiteSpace=wrap;html=1;fontStyle=1;fontSize=16;shadow=1;strokeWidth=2;" parent="1" vertex="1">
          <mxGeometry x="440.0000000000002" y="180" width="80" height="60" as="geometry" />
        </mxCell>
        <mxCell id="nRG68s6rUzyQYK_MIIgg-19" value="WEEK 1" style="text;html=1;strokeColor=none;fillColor=none;align=center;verticalAlign=middle;whiteSpace=wrap;rounded=0;fontStyle=1;fontSize=13;shadow=1;strokeWidth=2;" parent="1" vertex="1">
          <mxGeometry x="210" y="195" width="60" height="30" as="geometry" />
        </mxCell>
        <mxCell id="nRG68s6rUzyQYK_MIIgg-20" value="WEEK 2" style="text;html=1;strokeColor=none;fillColor=none;align=center;verticalAlign=middle;whiteSpace=wrap;rounded=0;fontStyle=1;fontSize=13;shadow=1;strokeWidth=2;" parent="1" vertex="1">
          <mxGeometry x="290.0000000000002" y="195" width="60" height="30" as="geometry" />
        </mxCell>
        <mxCell id="nRG68s6rUzyQYK_MIIgg-21" value="WEEK 3" style="text;html=1;strokeColor=none;fillColor=none;align=center;verticalAlign=middle;whiteSpace=wrap;rounded=0;fontStyle=1;fontSize=13;shadow=1;strokeWidth=2;" parent="1" vertex="1">
          <mxGeometry x="370.0000000000002" y="195" width="60" height="30" as="geometry" />
        </mxCell>
        <mxCell id="nRG68s6rUzyQYK_MIIgg-22" value="WEEK 4" style="text;html=1;strokeColor=none;fillColor=none;align=center;verticalAlign=middle;whiteSpace=wrap;rounded=0;fontStyle=1;fontSize=13;shadow=1;strokeWidth=2;" parent="1" vertex="1">
          <mxGeometry x="450.0000000000002" y="195" width="60" height="30" as="geometry" />
        </mxCell>
        <mxCell id="nRG68s6rUzyQYK_MIIgg-25" value="" style="rounded=0;whiteSpace=wrap;html=1;fontStyle=1;fontSize=16;shadow=1;strokeWidth=2;" parent="1" vertex="1">
          <mxGeometry x="280" y="260" width="240" height="80" as="geometry" />
        </mxCell>
        <mxCell id="nRG68s6rUzyQYK_MIIgg-26" value="&lt;span style=&quot;font-size: 16px;&quot;&gt;21 Days&lt;/span&gt;" style="text;html=1;strokeColor=none;fillColor=none;align=center;verticalAlign=middle;whiteSpace=wrap;rounded=0;fontStyle=1;fontSize=16;shadow=1;strokeWidth=2;" parent="1" vertex="1">
          <mxGeometry x="360" y="285" width="81" height="30" as="geometry" />
        </mxCell>
        <mxCell id="nRG68s6rUzyQYK_MIIgg-27" value="MARCH" style="rounded=0;whiteSpace=wrap;html=1;fontStyle=1;fontSize=16;shadow=1;strokeWidth=2;" parent="1" vertex="1">
          <mxGeometry x="521" y="920" width="320" height="40" as="geometry" />
        </mxCell>
        <mxCell id="nRG68s6rUzyQYK_MIIgg-28" value="APRIL" style="rounded=0;whiteSpace=wrap;html=1;fontStyle=1;fontSize=16;shadow=1;strokeWidth=2;" parent="1" vertex="1">
          <mxGeometry x="840" y="920" width="320" height="40" as="geometry" />
        </mxCell>
        <mxCell id="nRG68s6rUzyQYK_MIIgg-30" value="" style="rounded=0;whiteSpace=wrap;html=1;fontStyle=1;fontSize=16;shadow=1;strokeWidth=2;" parent="1" vertex="1">
          <mxGeometry x="520" y="180" width="80" height="60" as="geometry" />
        </mxCell>
        <mxCell id="nRG68s6rUzyQYK_MIIgg-31" value="" style="rounded=0;whiteSpace=wrap;html=1;fontStyle=1;fontSize=16;shadow=1;strokeWidth=2;" parent="1" vertex="1">
          <mxGeometry x="600" y="180" width="80" height="60" as="geometry" />
        </mxCell>
        <mxCell id="nRG68s6rUzyQYK_MIIgg-32" value="" style="rounded=0;whiteSpace=wrap;html=1;fontStyle=1;fontSize=16;shadow=1;strokeWidth=2;" parent="1" vertex="1">
          <mxGeometry x="680" y="180" width="80" height="60" as="geometry" />
        </mxCell>
        <mxCell id="nRG68s6rUzyQYK_MIIgg-33" value="" style="rounded=0;whiteSpace=wrap;html=1;fontStyle=1;fontSize=16;shadow=1;strokeWidth=2;" parent="1" vertex="1">
          <mxGeometry x="760" y="180" width="80" height="60" as="geometry" />
        </mxCell>
        <mxCell id="nRG68s6rUzyQYK_MIIgg-34" value="" style="rounded=0;whiteSpace=wrap;html=1;fontStyle=1;fontSize=16;shadow=1;strokeWidth=2;" parent="1" vertex="1">
          <mxGeometry x="840" y="180" width="80" height="60" as="geometry" />
        </mxCell>
        <mxCell id="nRG68s6rUzyQYK_MIIgg-35" value="" style="rounded=0;whiteSpace=wrap;html=1;fontStyle=1;fontSize=16;shadow=1;strokeWidth=2;" parent="1" vertex="1">
          <mxGeometry x="920" y="180" width="80" height="60" as="geometry" />
        </mxCell>
        <mxCell id="nRG68s6rUzyQYK_MIIgg-46" value="" style="rounded=0;whiteSpace=wrap;html=1;fontStyle=1;fontSize=16;shadow=1;strokeWidth=2;" parent="1" vertex="1">
          <mxGeometry x="680" y="450" width="80" height="70" as="geometry" />
        </mxCell>
        <mxCell id="nRG68s6rUzyQYK_MIIgg-48" value="WEEK 5" style="text;html=1;strokeColor=none;fillColor=none;align=center;verticalAlign=middle;whiteSpace=wrap;rounded=0;fontStyle=1;fontSize=13;shadow=1;strokeWidth=2;" parent="1" vertex="1">
          <mxGeometry x="530.0000000000002" y="195" width="60" height="30" as="geometry" />
        </mxCell>
        <mxCell id="nRG68s6rUzyQYK_MIIgg-49" value="WEEK 6" style="text;html=1;strokeColor=none;fillColor=none;align=center;verticalAlign=middle;whiteSpace=wrap;rounded=0;fontStyle=1;fontSize=13;shadow=1;strokeWidth=2;" parent="1" vertex="1">
          <mxGeometry x="610.0000000000002" y="195" width="60" height="30" as="geometry" />
        </mxCell>
        <mxCell id="nRG68s6rUzyQYK_MIIgg-50" value="WEEK 7" style="text;html=1;strokeColor=none;fillColor=none;align=center;verticalAlign=middle;whiteSpace=wrap;rounded=0;fontStyle=1;fontSize=13;shadow=1;strokeWidth=2;" parent="1" vertex="1">
          <mxGeometry x="690.0000000000002" y="195" width="60" height="30" as="geometry" />
        </mxCell>
        <mxCell id="nRG68s6rUzyQYK_MIIgg-51" value="WEEK 8" style="text;html=1;strokeColor=none;fillColor=none;align=center;verticalAlign=middle;whiteSpace=wrap;rounded=0;fontStyle=1;fontSize=13;shadow=1;strokeWidth=2;" parent="1" vertex="1">
          <mxGeometry x="770.0000000000002" y="195" width="60" height="30" as="geometry" />
        </mxCell>
        <mxCell id="nRG68s6rUzyQYK_MIIgg-52" value="WEEK 9" style="text;html=1;strokeColor=none;fillColor=none;align=center;verticalAlign=middle;whiteSpace=wrap;rounded=0;fontStyle=1;fontSize=13;shadow=1;strokeWidth=2;" parent="1" vertex="1">
          <mxGeometry x="850.0000000000002" y="195" width="60" height="30" as="geometry" />
        </mxCell>
        <mxCell id="nRG68s6rUzyQYK_MIIgg-53" value="WEEK 10" style="text;html=1;strokeColor=none;fillColor=none;align=center;verticalAlign=middle;whiteSpace=wrap;rounded=0;fontStyle=1;fontSize=13;shadow=1;strokeWidth=2;" parent="1" vertex="1">
          <mxGeometry x="930.0000000000002" y="195" width="60" height="30" as="geometry" />
        </mxCell>
        <mxCell id="nRG68s6rUzyQYK_MIIgg-66" value="" style="endArrow=none;dashed=1;html=1;rounded=0;entryX=0;entryY=1;entryDx=0;entryDy=0;fontStyle=1;fontSize=16;shadow=1;exitX=0.75;exitY=0;exitDx=0;exitDy=0;strokeWidth=2;" parent="1" source="nRG68s6rUzyQYK_MIIgg-27" edge="1">
          <mxGeometry width="50" height="50" relative="1" as="geometry">
            <mxPoint x="760" y="560" as="sourcePoint" />
            <mxPoint x="760" y="240" as="targetPoint" />
          </mxGeometry>
        </mxCell>
        <mxCell id="nRG68s6rUzyQYK_MIIgg-69" value="" style="endArrow=none;html=1;rounded=0;exitX=1;exitY=0.5;exitDx=0;exitDy=0;entryX=0;entryY=0.5;entryDx=0;entryDy=0;fontStyle=1;fontSize=16;shadow=1;strokeWidth=2;" parent="1" source="nRG68s6rUzyQYK_MIIgg-1" target="nRG68s6rUzyQYK_MIIgg-25" edge="1">
          <mxGeometry width="50" height="50" relative="1" as="geometry">
            <mxPoint x="740" y="580" as="sourcePoint" />
            <mxPoint x="790" y="530" as="targetPoint" />
          </mxGeometry>
        </mxCell>
        <mxCell id="nRG68s6rUzyQYK_MIIgg-70" value="" style="endArrow=none;html=1;rounded=0;exitX=1;exitY=0.5;exitDx=0;exitDy=0;entryX=0;entryY=0.5;entryDx=0;entryDy=0;fontStyle=1;fontSize=16;shadow=1;strokeWidth=2;" parent="1" source="nRG68s6rUzyQYK_MIIgg-3" target="nRG68s6rUzyQYK_MIIgg-45" edge="1">
          <mxGeometry width="50" height="50" relative="1" as="geometry">
            <mxPoint x="740" y="580" as="sourcePoint" />
            <mxPoint x="790" y="530" as="targetPoint" />
          </mxGeometry>
        </mxCell>
        <mxCell id="nRG68s6rUzyQYK_MIIgg-71" value="" style="endArrow=none;html=1;rounded=0;exitX=1;exitY=0.5;exitDx=0;exitDy=0;fontStyle=1;fontSize=16;shadow=1;strokeWidth=2;" parent="1" source="nRG68s6rUzyQYK_MIIgg-5" target="nRG68s6rUzyQYK_MIIgg-46" edge="1">
          <mxGeometry width="50" height="50" relative="1" as="geometry">
            <mxPoint x="380" y="630" as="sourcePoint" />
            <mxPoint x="430" y="580" as="targetPoint" />
          </mxGeometry>
        </mxCell>
        <mxCell id="nRG68s6rUzyQYK_MIIgg-78" value="&lt;span style=&quot;font-size: 16px;&quot;&gt;21 Days&lt;/span&gt;" style="text;html=1;strokeColor=none;fillColor=none;align=center;verticalAlign=middle;whiteSpace=wrap;rounded=0;fontStyle=1;fontSize=16;shadow=1;strokeWidth=2;" parent="1" vertex="1">
          <mxGeometry x="641.5" y="370" width="77" height="50" as="geometry" />
        </mxCell>
        <mxCell id="nRG68s6rUzyQYK_MIIgg-79" value="&lt;span style=&quot;font-size: 16px;&quot;&gt;7 Days&lt;/span&gt;" style="text;html=1;strokeColor=none;fillColor=none;align=center;verticalAlign=middle;whiteSpace=wrap;rounded=0;fontStyle=1;fontSize=16;shadow=1;strokeWidth=2;" parent="1" vertex="1">
          <mxGeometry x="674.5" y="470" width="90" height="30" as="geometry" />
        </mxCell>
        <mxCell id="nRG68s6rUzyQYK_MIIgg-92" value="" style="endArrow=none;dashed=1;html=1;rounded=0;entryX=0;entryY=1;entryDx=0;entryDy=0;fontStyle=1;fontSize=16;shadow=1;strokeWidth=2;" parent="1" edge="1">
          <mxGeometry width="50" height="50" relative="1" as="geometry">
            <mxPoint x="1160" y="920" as="sourcePoint" />
            <mxPoint x="1160" y="240" as="targetPoint" />
          </mxGeometry>
        </mxCell>
        <mxCell id="nRG68s6rUzyQYK_MIIgg-93" value="" style="endArrow=none;dashed=1;html=1;rounded=0;entryX=0;entryY=1;entryDx=0;entryDy=0;fontStyle=1;fontSize=16;shadow=1;exitX=0.25;exitY=0;exitDx=0;exitDy=0;strokeWidth=2;" parent="1" source="nRG68s6rUzyQYK_MIIgg-11" edge="1">
          <mxGeometry width="50" height="50" relative="1" as="geometry">
            <mxPoint x="280" y="560" as="sourcePoint" />
            <mxPoint x="280" y="240" as="targetPoint" />
          </mxGeometry>
        </mxCell>
        <mxCell id="bfoRQ5PlQPEFTZ_pfbjN-5" value="ALGORITHM&lt;br&gt;DEVELOPMENT" style="rounded=0;whiteSpace=wrap;html=1;fontStyle=1;fontSize=14;shadow=1;strokeWidth=2;" parent="1" vertex="1">
          <mxGeometry x="41" y="540" width="120" height="70" as="geometry" />
        </mxCell>
        <mxCell id="bfoRQ5PlQPEFTZ_pfbjN-6" value="" style="rounded=0;whiteSpace=wrap;html=1;fontStyle=1;fontSize=16;shadow=1;strokeWidth=2;" parent="1" vertex="1">
          <mxGeometry x="760" y="540" width="81" height="70" as="geometry" />
        </mxCell>
        <mxCell id="bfoRQ5PlQPEFTZ_pfbjN-7" value="" style="endArrow=none;html=1;rounded=0;exitX=1;exitY=0.5;exitDx=0;exitDy=0;fontStyle=1;fontSize=16;shadow=1;strokeWidth=2;" parent="1" source="bfoRQ5PlQPEFTZ_pfbjN-5" target="bfoRQ5PlQPEFTZ_pfbjN-6" edge="1">
          <mxGeometry width="50" height="50" relative="1" as="geometry">
            <mxPoint x="381" y="720" as="sourcePoint" />
            <mxPoint x="431" y="670" as="targetPoint" />
          </mxGeometry>
        </mxCell>
        <mxCell id="bfoRQ5PlQPEFTZ_pfbjN-8" value="&lt;span style=&quot;font-size: 16px;&quot;&gt;7 Days&lt;/span&gt;" style="text;html=1;strokeColor=none;fillColor=none;align=center;verticalAlign=middle;whiteSpace=wrap;rounded=0;fontStyle=1;fontSize=16;shadow=1;strokeWidth=2;" parent="1" vertex="1">
          <mxGeometry x="755.5" y="560" width="90" height="30" as="geometry" />
        </mxCell>
        <mxCell id="bfoRQ5PlQPEFTZ_pfbjN-9" value="MODEL&lt;br&gt;TRAINING&amp;nbsp;" style="rounded=0;whiteSpace=wrap;html=1;fontStyle=1;fontSize=14;shadow=1;strokeWidth=2;" parent="1" vertex="1">
          <mxGeometry x="41" y="634" width="120" height="70" as="geometry" />
        </mxCell>
        <mxCell id="bfoRQ5PlQPEFTZ_pfbjN-10" value="" style="rounded=0;whiteSpace=wrap;html=1;fontStyle=1;fontSize=16;shadow=1;strokeWidth=2;" parent="1" vertex="1">
          <mxGeometry x="840" y="634" width="80" height="70" as="geometry" />
        </mxCell>
        <mxCell id="bfoRQ5PlQPEFTZ_pfbjN-11" value="" style="endArrow=none;html=1;rounded=0;exitX=1;exitY=0.5;exitDx=0;exitDy=0;fontStyle=1;fontSize=16;shadow=1;strokeWidth=2;" parent="1" source="bfoRQ5PlQPEFTZ_pfbjN-9" target="bfoRQ5PlQPEFTZ_pfbjN-10" edge="1">
          <mxGeometry width="50" height="50" relative="1" as="geometry">
            <mxPoint x="381" y="814" as="sourcePoint" />
            <mxPoint x="431" y="764" as="targetPoint" />
          </mxGeometry>
        </mxCell>
        <mxCell id="bfoRQ5PlQPEFTZ_pfbjN-12" value="&lt;span style=&quot;font-size: 16px;&quot;&gt;7 Days&lt;/span&gt;" style="text;html=1;strokeColor=none;fillColor=none;align=center;verticalAlign=middle;whiteSpace=wrap;rounded=0;fontStyle=1;fontSize=16;shadow=1;strokeWidth=2;" parent="1" vertex="1">
          <mxGeometry x="837.5" y="654" width="90" height="30" as="geometry" />
        </mxCell>
        <mxCell id="PKj-x0mrQdb3axZJa0hV-1" value="" style="endArrow=none;dashed=1;html=1;rounded=0;entryX=1;entryY=1;entryDx=0;entryDy=0;fontStyle=1;fontSize=16;shadow=1;exitX=0;exitY=0;exitDx=0;exitDy=0;strokeWidth=2;" parent="1" source="nRG68s6rUzyQYK_MIIgg-28" target="nRG68s6rUzyQYK_MIIgg-33" edge="1">
          <mxGeometry width="50" height="50" relative="1" as="geometry">
            <mxPoint x="770" y="791" as="sourcePoint" />
            <mxPoint x="770" y="250" as="targetPoint" />
          </mxGeometry>
        </mxCell>
        <mxCell id="PKj-x0mrQdb3axZJa0hV-2" value="" style="endArrow=none;dashed=1;html=1;rounded=0;fontStyle=1;fontSize=16;shadow=1;exitX=0.5;exitY=0;exitDx=0;exitDy=0;strokeWidth=2;" parent="1" source="nRG68s6rUzyQYK_MIIgg-27" edge="1">
          <mxGeometry width="50" height="50" relative="1" as="geometry">
            <mxPoint x="770" y="791" as="sourcePoint" />
            <mxPoint x="680" y="240" as="targetPoint" />
          </mxGeometry>
        </mxCell>
        <mxCell id="PKj-x0mrQdb3axZJa0hV-6" value="&lt;span style=&quot;font-size: 16px;&quot;&gt;&amp;nbsp;Days&lt;/span&gt;" style="text;html=1;strokeColor=none;fillColor=none;align=center;verticalAlign=middle;whiteSpace=wrap;rounded=0;fontStyle=1;fontSize=16;shadow=1;strokeWidth=2;" parent="1" vertex="1">
          <mxGeometry x="1188" y="928" width="77" height="50" as="geometry" />
        </mxCell>
        <mxCell id="PKj-x0mrQdb3axZJa0hV-7" value="TESTING AND DEBUGGING" style="rounded=0;whiteSpace=wrap;html=1;fontStyle=1;fontSize=14;shadow=1;strokeWidth=2;" parent="1" vertex="1">
          <mxGeometry x="39" y="729" width="120" height="70" as="geometry" />
        </mxCell>
        <mxCell id="PKj-x0mrQdb3axZJa0hV-8" value="" style="rounded=0;whiteSpace=wrap;html=1;fontStyle=1;fontSize=16;shadow=1;strokeWidth=2;" parent="1" vertex="1">
          <mxGeometry x="1000" y="729" width="80" height="70" as="geometry" />
        </mxCell>
        <mxCell id="PKj-x0mrQdb3axZJa0hV-9" value="" style="endArrow=none;html=1;rounded=0;exitX=1;exitY=0.5;exitDx=0;exitDy=0;fontStyle=1;fontSize=16;shadow=1;strokeWidth=2;" parent="1" source="PKj-x0mrQdb3axZJa0hV-7" target="PKj-x0mrQdb3axZJa0hV-8" edge="1">
          <mxGeometry width="50" height="50" relative="1" as="geometry">
            <mxPoint x="379" y="909" as="sourcePoint" />
            <mxPoint x="429" y="859" as="targetPoint" />
          </mxGeometry>
        </mxCell>
        <mxCell id="2OuSJLI_iLWcQQiQH4mn-1" style="edgeStyle=orthogonalEdgeStyle;rounded=0;orthogonalLoop=1;jettySize=auto;html=1;exitX=0;exitY=0.5;exitDx=0;exitDy=0;" parent="1" source="PKj-x0mrQdb3axZJa0hV-10" edge="1">
          <mxGeometry relative="1" as="geometry">
            <mxPoint x="910" y="764.3076923076922" as="targetPoint" />
          </mxGeometry>
        </mxCell>
        <mxCell id="PKj-x0mrQdb3axZJa0hV-10" value="&lt;span style=&quot;font-size: 16px;&quot;&gt;7 Days&lt;/span&gt;" style="text;html=1;strokeColor=none;fillColor=none;align=center;verticalAlign=middle;whiteSpace=wrap;rounded=0;fontStyle=1;fontSize=16;shadow=1;strokeWidth=2;" parent="1" vertex="1">
          <mxGeometry x="993.5" y="749" width="90" height="30" as="geometry" />
        </mxCell>
        <mxCell id="PKj-x0mrQdb3axZJa0hV-11" value="DOCUMENTATION" style="rounded=0;whiteSpace=wrap;html=1;fontStyle=1;fontSize=14;shadow=1;strokeWidth=2;" parent="1" vertex="1">
          <mxGeometry x="41" y="815" width="120" height="70" as="geometry" />
        </mxCell>
        <mxCell id="PKj-x0mrQdb3axZJa0hV-12" value="" style="rounded=0;whiteSpace=wrap;html=1;fontStyle=1;fontSize=16;shadow=1;strokeWidth=2;" parent="1" vertex="1">
          <mxGeometry x="1080" y="815" width="77" height="70" as="geometry" />
        </mxCell>
        <mxCell id="PKj-x0mrQdb3axZJa0hV-13" value="" style="endArrow=none;html=1;rounded=0;exitX=1;exitY=0.5;exitDx=0;exitDy=0;fontStyle=1;fontSize=16;shadow=1;strokeWidth=2;" parent="1" source="PKj-x0mrQdb3axZJa0hV-11" target="PKj-x0mrQdb3axZJa0hV-12" edge="1">
          <mxGeometry width="50" height="50" relative="1" as="geometry">
            <mxPoint x="381" y="995" as="sourcePoint" />
            <mxPoint x="431" y="945" as="targetPoint" />
          </mxGeometry>
        </mxCell>
        <mxCell id="PKj-x0mrQdb3axZJa0hV-14" value="&lt;span style=&quot;font-size: 16px;&quot;&gt;7 Days&lt;/span&gt;" style="text;html=1;strokeColor=none;fillColor=none;align=center;verticalAlign=middle;whiteSpace=wrap;rounded=0;fontStyle=1;fontSize=16;shadow=1;strokeWidth=2;" parent="1" vertex="1">
          <mxGeometry x="1074.5" y="835" width="90" height="30" as="geometry" />
        </mxCell>
        <mxCell id="PKj-x0mrQdb3axZJa0hV-19" value="" style="endArrow=none;dashed=1;html=1;rounded=0;entryX=1;entryY=1;entryDx=0;entryDy=0;fontStyle=1;fontSize=16;shadow=1;exitX=0.25;exitY=0;exitDx=0;exitDy=0;strokeWidth=2;" parent="1" source="nRG68s6rUzyQYK_MIIgg-28" target="nRG68s6rUzyQYK_MIIgg-34" edge="1">
          <mxGeometry width="50" height="50" relative="1" as="geometry">
            <mxPoint x="850" y="1093" as="sourcePoint" />
            <mxPoint x="850" y="250" as="targetPoint" />
          </mxGeometry>
        </mxCell>
        <mxCell id="PKj-x0mrQdb3axZJa0hV-20" value="" style="endArrow=none;dashed=1;html=1;rounded=0;entryX=1;entryY=1;entryDx=0;entryDy=0;fontStyle=1;fontSize=16;shadow=1;strokeWidth=2;exitX=0.5;exitY=0;exitDx=0;exitDy=0;" parent="1" source="nRG68s6rUzyQYK_MIIgg-28" target="nRG68s6rUzyQYK_MIIgg-35" edge="1">
          <mxGeometry width="50" height="50" relative="1" as="geometry">
            <mxPoint x="1000" y="870" as="sourcePoint" />
            <mxPoint x="860" y="260" as="targetPoint" />
            <Array as="points">
              <mxPoint x="1000" y="830" />
            </Array>
          </mxGeometry>
        </mxCell>
        <mxCell id="nRG68s6rUzyQYK_MIIgg-45" value="28 Days" style="rounded=0;whiteSpace=wrap;html=1;fontStyle=1;fontSize=16;shadow=1;strokeWidth=2;" parent="1" vertex="1">
          <mxGeometry x="520" y="360" width="320" height="70" as="geometry" />
        </mxCell>
        <mxCell id="PKj-x0mrQdb3axZJa0hV-23" value="" style="endArrow=none;dashed=1;html=1;rounded=0;fontStyle=1;fontSize=16;shadow=1;exitX=0;exitY=0.25;exitDx=0;exitDy=0;entryX=0;entryY=1;entryDx=0;entryDy=0;strokeWidth=2;" parent="1" source="nRG68s6rUzyQYK_MIIgg-27" target="nRG68s6rUzyQYK_MIIgg-30" edge="1">
          <mxGeometry width="50" height="50" relative="1" as="geometry">
            <mxPoint x="690" y="1093" as="sourcePoint" />
            <mxPoint x="690" y="250" as="targetPoint" />
          </mxGeometry>
        </mxCell>
      </root>
    </mxGraphModel>
  </diagram>
  <diagram id="pp2uPzFOZtReLgX1TJuP" name="Page-2">
    <mxGraphModel dx="1050" dy="522" grid="1" gridSize="10" guides="1" tooltips="1" connect="1" arrows="1" fold="1" page="1" pageScale="1" pageWidth="850" pageHeight="1100" math="0" shadow="0">
      <root>
        <mxCell id="0" />
        <mxCell id="1" parent="0" />
        <mxCell id="ctoXWj7uKZLzlPRft05r-2" style="edgeStyle=orthogonalEdgeStyle;rounded=0;orthogonalLoop=1;jettySize=auto;html=1;exitX=1;exitY=0.5;exitDx=0;exitDy=0;" edge="1" parent="1" source="SmhYAxJWV6O7A0enZI1u-4">
          <mxGeometry relative="1" as="geometry">
            <mxPoint x="200" y="295" as="targetPoint" />
          </mxGeometry>
        </mxCell>
        <mxCell id="SmhYAxJWV6O7A0enZI1u-4" value="&#xa;&lt;span style=&quot;color: rgb(0, 0, 0); font-family: Helvetica; font-size: 14px; font-style: normal; font-variant-ligatures: normal; font-variant-caps: normal; font-weight: 700; letter-spacing: normal; orphans: 2; text-align: center; text-indent: 0px; text-transform: none; widows: 2; word-spacing: 0px; -webkit-text-stroke-width: 0px; background-color: rgb(251, 251, 251); text-decoration-thickness: initial; text-decoration-style: initial; text-decoration-color: initial; float: none; display: inline !important;&quot;&gt;LITERATURE&amp;nbsp;&lt;/span&gt;&lt;br style=&quot;border-color: var(--border-color); color: rgb(0, 0, 0); font-family: Helvetica; font-size: 14px; font-style: normal; font-variant-ligatures: normal; font-variant-caps: normal; font-weight: 700; letter-spacing: normal; orphans: 2; text-align: center; text-indent: 0px; text-transform: none; widows: 2; word-spacing: 0px; -webkit-text-stroke-width: 0px; background-color: rgb(251, 251, 251); text-decoration-thickness: initial; text-decoration-style: initial; text-decoration-color: initial;&quot;&gt;&lt;span style=&quot;color: rgb(0, 0, 0); font-family: Helvetica; font-size: 14px; font-style: normal; font-variant-ligatures: normal; font-variant-caps: normal; font-weight: 700; letter-spacing: normal; orphans: 2; text-align: center; text-indent: 0px; text-transform: none; widows: 2; word-spacing: 0px; -webkit-text-stroke-width: 0px; background-color: rgb(251, 251, 251); text-decoration-thickness: initial; text-decoration-style: initial; text-decoration-color: initial; float: none; display: inline !important;&quot;&gt;SURVEY&lt;/span&gt;&#xa;&#xa;" style="rounded=0;whiteSpace=wrap;html=1;fontStyle=1;fontSize=14;shadow=1;strokeWidth=2;" parent="1" vertex="1">
          <mxGeometry x="39" y="260" width="120" height="70" as="geometry" />
        </mxCell>
        <mxCell id="SmhYAxJWV6O7A0enZI1u-5" value="SYSTEM DESIGN" style="rounded=0;whiteSpace=wrap;html=1;fontStyle=1;fontSize=14;shadow=1;strokeWidth=2;" parent="1" vertex="1">
          <mxGeometry x="39" y="360" width="120" height="70" as="geometry" />
        </mxCell>
        <mxCell id="SmhYAxJWV6O7A0enZI1u-6" value="FEBRUARY" style="rounded=0;whiteSpace=wrap;html=1;fontStyle=1;fontSize=16;shadow=1;strokeWidth=2;" parent="1" vertex="1">
          <mxGeometry x="200.5" y="760" width="240" height="40" as="geometry" />
        </mxCell>
        <mxCell id="SmhYAxJWV6O7A0enZI1u-7" value="" style="rounded=0;whiteSpace=wrap;html=1;fontStyle=1;fontSize=16;shadow=1;strokeWidth=2;" parent="1" vertex="1">
          <mxGeometry x="200" y="165" width="80" height="60" as="geometry" />
        </mxCell>
        <mxCell id="SmhYAxJWV6O7A0enZI1u-9" value="" style="rounded=0;whiteSpace=wrap;html=1;fontStyle=1;fontSize=16;shadow=1;strokeWidth=2;" parent="1" vertex="1">
          <mxGeometry x="280.0000000000002" y="165" width="80" height="60" as="geometry" />
        </mxCell>
        <mxCell id="SmhYAxJWV6O7A0enZI1u-10" value="" style="rounded=0;whiteSpace=wrap;html=1;fontStyle=1;fontSize=16;shadow=1;strokeWidth=2;" parent="1" vertex="1">
          <mxGeometry x="360.0000000000002" y="165" width="80" height="60" as="geometry" />
        </mxCell>
        <mxCell id="SmhYAxJWV6O7A0enZI1u-11" value="" style="rounded=0;whiteSpace=wrap;html=1;fontStyle=1;fontSize=16;shadow=1;strokeWidth=2;" parent="1" vertex="1">
          <mxGeometry x="440.0000000000002" y="165" width="80" height="60" as="geometry" />
        </mxCell>
        <mxCell id="SmhYAxJWV6O7A0enZI1u-12" value="WEEK 1" style="text;html=1;strokeColor=none;fillColor=none;align=center;verticalAlign=middle;whiteSpace=wrap;rounded=0;fontStyle=1;fontSize=13;shadow=1;strokeWidth=2;" parent="1" vertex="1">
          <mxGeometry x="210" y="180" width="60" height="30" as="geometry" />
        </mxCell>
        <mxCell id="SmhYAxJWV6O7A0enZI1u-13" value="WEEK 2" style="text;html=1;strokeColor=none;fillColor=none;align=center;verticalAlign=middle;whiteSpace=wrap;rounded=0;fontStyle=1;fontSize=13;shadow=1;strokeWidth=2;" parent="1" vertex="1">
          <mxGeometry x="290.0000000000002" y="180" width="60" height="30" as="geometry" />
        </mxCell>
        <mxCell id="SmhYAxJWV6O7A0enZI1u-14" value="WEEK 3" style="text;html=1;strokeColor=none;fillColor=none;align=center;verticalAlign=middle;whiteSpace=wrap;rounded=0;fontStyle=1;fontSize=13;shadow=1;strokeWidth=2;" parent="1" vertex="1">
          <mxGeometry x="370.0000000000002" y="180" width="60" height="30" as="geometry" />
        </mxCell>
        <mxCell id="SmhYAxJWV6O7A0enZI1u-15" value="WEEK 4" style="text;html=1;strokeColor=none;fillColor=none;align=center;verticalAlign=middle;whiteSpace=wrap;rounded=0;fontStyle=1;fontSize=13;shadow=1;strokeWidth=2;" parent="1" vertex="1">
          <mxGeometry x="450.0000000000002" y="180" width="60" height="30" as="geometry" />
        </mxCell>
        <mxCell id="SmhYAxJWV6O7A0enZI1u-16" value="8 days" style="rounded=0;whiteSpace=wrap;html=1;fontStyle=1;fontSize=16;shadow=1;strokeWidth=2;" parent="1" vertex="1">
          <mxGeometry x="200.5" y="260" width="99.5" height="72.5" as="geometry" />
        </mxCell>
        <mxCell id="SmhYAxJWV6O7A0enZI1u-18" value="MARCH" style="rounded=0;whiteSpace=wrap;html=1;fontStyle=1;fontSize=16;shadow=1;strokeWidth=2;" parent="1" vertex="1">
          <mxGeometry x="440.5" y="760" width="320" height="41" as="geometry" />
        </mxCell>
        <mxCell id="SmhYAxJWV6O7A0enZI1u-19" value="APRIL" style="rounded=0;whiteSpace=wrap;html=1;fontStyle=1;fontSize=16;shadow=1;strokeWidth=2;" parent="1" vertex="1">
          <mxGeometry x="761.95" y="761" width="240" height="40" as="geometry" />
        </mxCell>
        <mxCell id="SmhYAxJWV6O7A0enZI1u-21" value="" style="rounded=0;whiteSpace=wrap;html=1;fontStyle=1;fontSize=16;shadow=1;strokeWidth=2;" parent="1" vertex="1">
          <mxGeometry x="520" y="165" width="80" height="60" as="geometry" />
        </mxCell>
        <mxCell id="SmhYAxJWV6O7A0enZI1u-22" value="" style="rounded=0;whiteSpace=wrap;html=1;fontStyle=1;fontSize=16;shadow=1;strokeWidth=2;" parent="1" vertex="1">
          <mxGeometry x="600" y="165" width="80" height="60" as="geometry" />
        </mxCell>
        <mxCell id="SmhYAxJWV6O7A0enZI1u-23" value="" style="rounded=0;whiteSpace=wrap;html=1;fontStyle=1;fontSize=16;shadow=1;strokeWidth=2;" parent="1" vertex="1">
          <mxGeometry x="680" y="165" width="80" height="60" as="geometry" />
        </mxCell>
        <mxCell id="SmhYAxJWV6O7A0enZI1u-24" value="" style="rounded=0;whiteSpace=wrap;html=1;fontStyle=1;fontSize=16;shadow=1;strokeWidth=2;" parent="1" vertex="1">
          <mxGeometry x="760" y="165" width="80" height="60" as="geometry" />
        </mxCell>
        <mxCell id="SmhYAxJWV6O7A0enZI1u-25" value="" style="rounded=0;whiteSpace=wrap;html=1;fontStyle=1;fontSize=16;shadow=1;strokeWidth=2;" parent="1" vertex="1">
          <mxGeometry x="840" y="165" width="80" height="60" as="geometry" />
        </mxCell>
        <mxCell id="SmhYAxJWV6O7A0enZI1u-26" value="" style="rounded=0;whiteSpace=wrap;html=1;fontStyle=1;fontSize=16;shadow=1;strokeWidth=2;" parent="1" vertex="1">
          <mxGeometry x="920" y="165" width="80" height="60" as="geometry" />
        </mxCell>
        <mxCell id="SmhYAxJWV6O7A0enZI1u-34" value="WEEK 5" style="text;html=1;strokeColor=none;fillColor=none;align=center;verticalAlign=middle;whiteSpace=wrap;rounded=0;fontStyle=1;fontSize=13;shadow=1;strokeWidth=2;" parent="1" vertex="1">
          <mxGeometry x="530.0000000000002" y="180" width="60" height="30" as="geometry" />
        </mxCell>
        <mxCell id="SmhYAxJWV6O7A0enZI1u-35" value="WEEK 6" style="text;html=1;strokeColor=none;fillColor=none;align=center;verticalAlign=middle;whiteSpace=wrap;rounded=0;fontStyle=1;fontSize=13;shadow=1;strokeWidth=2;" parent="1" vertex="1">
          <mxGeometry x="610.0000000000002" y="180" width="60" height="30" as="geometry" />
        </mxCell>
        <mxCell id="SmhYAxJWV6O7A0enZI1u-36" value="WEEK 7" style="text;html=1;strokeColor=none;fillColor=none;align=center;verticalAlign=middle;whiteSpace=wrap;rounded=0;fontStyle=1;fontSize=13;shadow=1;strokeWidth=2;" parent="1" vertex="1">
          <mxGeometry x="690.0000000000002" y="180" width="60" height="30" as="geometry" />
        </mxCell>
        <mxCell id="SmhYAxJWV6O7A0enZI1u-37" value="WEEK 8" style="text;html=1;strokeColor=none;fillColor=none;align=center;verticalAlign=middle;whiteSpace=wrap;rounded=0;fontStyle=1;fontSize=13;shadow=1;strokeWidth=2;" parent="1" vertex="1">
          <mxGeometry x="770.0000000000002" y="180" width="60" height="30" as="geometry" />
        </mxCell>
        <mxCell id="SmhYAxJWV6O7A0enZI1u-38" value="WEEK 9" style="text;html=1;strokeColor=none;fillColor=none;align=center;verticalAlign=middle;whiteSpace=wrap;rounded=0;fontStyle=1;fontSize=13;shadow=1;strokeWidth=2;" parent="1" vertex="1">
          <mxGeometry x="850.0000000000002" y="180" width="60" height="30" as="geometry" />
        </mxCell>
        <mxCell id="SmhYAxJWV6O7A0enZI1u-39" value="WEEK 10" style="text;html=1;strokeColor=none;fillColor=none;align=center;verticalAlign=middle;whiteSpace=wrap;rounded=0;fontStyle=1;fontSize=13;shadow=1;strokeWidth=2;" parent="1" vertex="1">
          <mxGeometry x="930.0000000000002" y="180" width="60" height="30" as="geometry" />
        </mxCell>
        <mxCell id="SmhYAxJWV6O7A0enZI1u-62" value="" style="endArrow=none;dashed=1;html=1;rounded=0;entryX=0;entryY=1;entryDx=0;entryDy=0;fontStyle=1;fontSize=16;shadow=1;strokeWidth=2;" parent="1" target="SmhYAxJWV6O7A0enZI1u-7" edge="1">
          <mxGeometry width="50" height="50" relative="1" as="geometry">
            <mxPoint x="200" y="760" as="sourcePoint" />
            <mxPoint x="280" y="240" as="targetPoint" />
            <Array as="points">
              <mxPoint x="200" y="760" />
            </Array>
          </mxGeometry>
        </mxCell>
        <mxCell id="SmhYAxJWV6O7A0enZI1u-67" value="IMPLEMENTATION" style="rounded=0;whiteSpace=wrap;html=1;fontStyle=1;fontSize=14;shadow=1;strokeWidth=2;" parent="1" vertex="1">
          <mxGeometry x="39" y="460" width="120" height="70" as="geometry" />
        </mxCell>
        <mxCell id="SmhYAxJWV6O7A0enZI1u-69" value="" style="endArrow=none;html=1;rounded=0;exitX=1;exitY=0.5;exitDx=0;exitDy=0;fontStyle=1;fontSize=16;shadow=1;strokeWidth=2;" parent="1" source="SmhYAxJWV6O7A0enZI1u-67" edge="1">
          <mxGeometry width="50" height="50" relative="1" as="geometry">
            <mxPoint x="381" y="723" as="sourcePoint" />
            <mxPoint x="520" y="500" as="targetPoint" />
          </mxGeometry>
        </mxCell>
        <mxCell id="SmhYAxJWV6O7A0enZI1u-74" value="" style="endArrow=none;html=1;rounded=0;exitX=1;exitY=0.5;exitDx=0;exitDy=0;fontStyle=1;fontSize=16;shadow=1;strokeWidth=2;" parent="1" edge="1">
          <mxGeometry width="50" height="50" relative="1" as="geometry">
            <mxPoint x="200.5" y="760" as="sourcePoint" />
            <mxPoint x="1000" y="762" as="targetPoint" />
          </mxGeometry>
        </mxCell>
        <mxCell id="SmhYAxJWV6O7A0enZI1u-76" value="TESTING AND INTEGRATION" style="rounded=0;whiteSpace=wrap;html=1;fontStyle=1;fontSize=14;shadow=1;strokeWidth=2;" parent="1" vertex="1">
          <mxGeometry x="39" y="560" width="120" height="70" as="geometry" />
        </mxCell>
        <mxCell id="SmhYAxJWV6O7A0enZI1u-77" value="7 Days" style="rounded=0;whiteSpace=wrap;html=1;fontStyle=1;fontSize=16;shadow=1;strokeWidth=2;" parent="1" vertex="1">
          <mxGeometry x="921.95" y="660" width="80" height="70" as="geometry" />
        </mxCell>
        <mxCell id="SmhYAxJWV6O7A0enZI1u-78" value="" style="endArrow=none;html=1;rounded=0;exitX=1;exitY=0.5;exitDx=0;exitDy=0;fontStyle=1;fontSize=16;shadow=1;strokeWidth=2;" parent="1" source="SmhYAxJWV6O7A0enZI1u-76" edge="1">
          <mxGeometry width="50" height="50" relative="1" as="geometry">
            <mxPoint x="379" y="818" as="sourcePoint" />
            <mxPoint x="760" y="600" as="targetPoint" />
          </mxGeometry>
        </mxCell>
        <mxCell id="SmhYAxJWV6O7A0enZI1u-80" value="REPORT GENERATION AND PAPER PUBLICATION" style="rounded=0;whiteSpace=wrap;html=1;fontStyle=1;fontSize=14;shadow=1;strokeWidth=2;" parent="1" vertex="1">
          <mxGeometry x="39" y="660" width="120" height="70" as="geometry" />
        </mxCell>
        <mxCell id="SmhYAxJWV6O7A0enZI1u-82" value="" style="endArrow=none;html=1;rounded=0;exitX=1;exitY=0.5;exitDx=0;exitDy=0;fontStyle=1;fontSize=16;shadow=1;strokeWidth=2;entryX=0;entryY=0.5;entryDx=0;entryDy=0;" parent="1" source="SmhYAxJWV6O7A0enZI1u-80" target="SmhYAxJWV6O7A0enZI1u-77" edge="1">
          <mxGeometry width="50" height="50" relative="1" as="geometry">
            <mxPoint x="381" y="904" as="sourcePoint" />
            <mxPoint x="431" y="854" as="targetPoint" />
          </mxGeometry>
        </mxCell>
        <mxCell id="SmhYAxJWV6O7A0enZI1u-86" value="19 days" style="rounded=0;whiteSpace=wrap;html=1;fontStyle=1;fontSize=16;shadow=1;strokeWidth=2;" parent="1" vertex="1">
          <mxGeometry x="300" y="360" width="220" height="70" as="geometry" />
        </mxCell>
        <mxCell id="SmhYAxJWV6O7A0enZI1u-93" value="" style="endArrow=none;html=1;rounded=0;exitX=1;exitY=0.5;exitDx=0;exitDy=0;fontStyle=1;fontSize=16;shadow=1;strokeWidth=2;entryX=0;entryY=0.5;entryDx=0;entryDy=0;" parent="1" source="SmhYAxJWV6O7A0enZI1u-5" target="SmhYAxJWV6O7A0enZI1u-86" edge="1">
          <mxGeometry width="50" height="50" relative="1" as="geometry">
            <mxPoint x="170" y="405" as="sourcePoint" />
            <mxPoint x="360" y="485" as="targetPoint" />
          </mxGeometry>
        </mxCell>
        <mxCell id="SmhYAxJWV6O7A0enZI1u-94" value="14 Days" style="rounded=0;whiteSpace=wrap;html=1;fontStyle=1;fontSize=16;shadow=1;strokeWidth=2;" parent="1" vertex="1">
          <mxGeometry x="760" y="556.5" width="160" height="77" as="geometry" />
        </mxCell>
        <mxCell id="SmhYAxJWV6O7A0enZI1u-90" value="21 days" style="rounded=0;whiteSpace=wrap;html=1;fontStyle=1;fontSize=16;shadow=1;strokeWidth=2;" parent="1" vertex="1">
          <mxGeometry x="520" y="460" width="240" height="70" as="geometry" />
        </mxCell>
        <mxCell id="ayjThcP2Mg4o5Pzxcfqu-25" value="" style="endArrow=none;dashed=1;html=1;rounded=0;entryX=0;entryY=1;entryDx=0;entryDy=0;fontStyle=1;fontSize=16;shadow=1;strokeWidth=2;" parent="1" edge="1">
          <mxGeometry width="50" height="50" relative="1" as="geometry">
            <mxPoint x="300" y="760" as="sourcePoint" />
            <mxPoint x="300" y="225" as="targetPoint" />
          </mxGeometry>
        </mxCell>
        <mxCell id="ayjThcP2Mg4o5Pzxcfqu-27" value="" style="endArrow=none;dashed=1;html=1;rounded=0;entryX=0;entryY=1;entryDx=0;entryDy=0;fontStyle=1;fontSize=16;shadow=1;strokeWidth=2;" parent="1" edge="1">
          <mxGeometry width="50" height="50" relative="1" as="geometry">
            <mxPoint x="520" y="760" as="sourcePoint" />
            <mxPoint x="520" y="220" as="targetPoint" />
          </mxGeometry>
        </mxCell>
        <mxCell id="ayjThcP2Mg4o5Pzxcfqu-29" value="" style="endArrow=none;dashed=1;html=1;rounded=0;entryX=0;entryY=1;entryDx=0;entryDy=0;fontStyle=1;fontSize=16;shadow=1;strokeWidth=2;" parent="1" edge="1">
          <mxGeometry width="50" height="50" relative="1" as="geometry">
            <mxPoint x="760" y="760" as="sourcePoint" />
            <mxPoint x="760" y="220" as="targetPoint" />
          </mxGeometry>
        </mxCell>
        <mxCell id="ayjThcP2Mg4o5Pzxcfqu-30" value="" style="endArrow=none;dashed=1;html=1;rounded=0;entryX=0;entryY=1;entryDx=0;entryDy=0;fontStyle=1;fontSize=16;shadow=1;strokeWidth=2;" parent="1" edge="1">
          <mxGeometry width="50" height="50" relative="1" as="geometry">
            <mxPoint x="920" y="760" as="sourcePoint" />
            <mxPoint x="919.9999999999999" y="226" as="targetPoint" />
          </mxGeometry>
        </mxCell>
        <mxCell id="ayjThcP2Mg4o5Pzxcfqu-31" value="" style="endArrow=none;dashed=1;html=1;rounded=0;entryX=0;entryY=1;entryDx=0;entryDy=0;fontStyle=1;fontSize=16;shadow=1;strokeWidth=2;" parent="1" edge="1">
          <mxGeometry width="50" height="50" relative="1" as="geometry">
            <mxPoint x="1000" y="760" as="sourcePoint" />
            <mxPoint x="999.9999999999999" y="225" as="targetPoint" />
          </mxGeometry>
        </mxCell>
        <mxCell id="upa6lSFWv3E-fpRQbdAx-2" value="&lt;b&gt;8TH FEB&amp;nbsp;&lt;/b&gt;" style="text;html=1;align=center;verticalAlign=middle;resizable=0;points=[];autosize=1;strokeColor=none;fillColor=none;" vertex="1" parent="1">
          <mxGeometry x="200" y="730" width="80" height="30" as="geometry" />
        </mxCell>
        <mxCell id="upa6lSFWv3E-fpRQbdAx-3" value="&lt;b&gt;19TH APR&lt;/b&gt;" style="text;html=1;align=center;verticalAlign=middle;resizable=0;points=[];autosize=1;strokeColor=none;fillColor=none;" vertex="1" parent="1">
          <mxGeometry x="920" y="730" width="80" height="30" as="geometry" />
        </mxCell>
      </root>
    </mxGraphModel>
  </diagram>
</mxfile>
